<?xml version="1.0" standalone="no"?>
<!DOCTYPE svg PUBLIC "-//W3C//DTD SVG 20010904//EN"
 "http://www.w3.org/TR/2001/REC-SVG-20010904/DTD/svg10.dtd">
<svg version="1.0" xmlns="http://www.w3.org/2000/svg"
 width="61.000000pt" height="90.000000pt" viewBox="0 0 61.000000 90.000000"
 preserveAspectRatio="xMidYMid meet">
<metadata>
Created by potrace 1.15, written by Peter Selinger 2001-2017
</metadata>
<g transform="translate(0.000000,90.000000) scale(0.100000,-0.100000)"
fill="#000000" stroke="none">
<path d="M10 882 c0 -10 40 -66 89 -125 l89 -107 -12 -41 c-7 -23 -21 -46 -32
-51 -110 -59 -171 -222 -129 -349 24 -72 110 -159 179 -182 207 -71 416 69
416 278 0 91 -29 154 -99 217 -35 32 -57 61 -67 92 -18 52 -29 31 94 180 63
75 73 107 35 105 -10 0 -56 -47 -108 -110 -49 -61 -94 -113 -100 -117 -12 -7
2 11 89 115 67 82 78 114 39 112 -10 0 -56 -47 -108 -110 -49 -61 -94 -113
-100 -117 -10 -7 8 18 99 127 36 44 56 77 52 86 -10 27 -34 16 -83 -41 l-49
-56 -48 56 c-48 57 -72 68 -82 41 -6 -14 3 -29 71 -112 15 -18 24 -33 22 -33
-3 0 -35 36 -71 80 -42 51 -74 80 -86 80 -34 0 -23 -29 38 -103 31 -39 63 -80
71 -92 26 -37 -11 4 -93 103 -75 90 -116 117 -116 74z m192 -383 c-47 -23 -83
-64 -107 -122 -31 -75 -12 -161 52 -224 141 -142 383 -46 383 152 0 88 -50
164 -130 199 l-35 15 31 1 c43 0 93 -36 129 -94 26 -43 30 -59 30 -120 0 -60
-4 -79 -28 -119 -98 -167 -347 -165 -440 2 -25 44 -31 66 -31 115 0 107 80
216 159 216 29 0 29 0 -13 -21z m188 -52 c50 -26 90 -90 90 -141 -1 -143 -181
-218 -289 -120 -68 61 -74 154 -14 225 52 62 137 76 213 36z"/>
<path d="M244 376 c-7 -19 3 -36 22 -36 11 0 14 -18 14 -89 0 -92 8 -109 45
-94 13 4 15 24 13 117 l-3 111 -43 3 c-30 2 -44 -1 -48 -12z"/>
</g>
</svg>
